<svg xmlns="http://www.w3.org/2000/svg" width="1200" height="675" viewBox="0 0 1200 675" role="img" aria-label="Analytics dashboard screenshot placeholder">
  <rect width="1200" height="675" fill="#f4f5f7"/>
  <rect x="40" y="40" width="1120" height="595" rx="16" fill="#ffffff" stroke="#e1e4e8"/>
  <rect x="40" y="40" width="1120" height="64" rx="16" fill="#1a5fb4"/>
  <rect x="40" y="88" width="1120" height="16" fill="#1a5fb4"/>
  <text x="80" y="80" font-family="system-ui, sans-serif" font-size="22" font-weight="700" fill="#ffffff">E-Commerce Analytics</text>
  <!-- chart panels -->
  <rect x="80" y="140" width="500" height="210" rx="10" fill="#f6f8fa" stroke="#e1e4e8"/>
  <polyline points="100,320 170,280 240,300 310,230 380,250 450,180 520,200 560,160" fill="none" stroke="#1a5fb4" stroke-width="4"/>
  <rect x="620" y="140" width="500" height="210" rx="10" fill="#f6f8fa" stroke="#e1e4e8"/>
  <polyline points="640,300 710,290 780,250 850,260 920,210 990,200 1100,150" fill="none" stroke="#2da44e" stroke-width="4" stroke-dasharray="8 6"/>
  <circle cx="850" cy="260" r="7" fill="#cf222e"/>
  <rect x="80" y="380" width="500" height="210" rx="10" fill="#f6f8fa" stroke="#e1e4e8"/>
  <rect x="120" y="470" width="50" height="100" fill="#1a5fb4"/>
  <rect x="200" y="500" width="50" height="70" fill="#1a5fb4"/>
  <rect x="280" y="520" width="50" height="50" fill="#1a5fb4"/>
  <rect x="360" y="540" width="50" height="30" fill="#1a5fb4"/>
  <rect x="620" y="380" width="500" height="210" rx="10" fill="#f6f8fa" stroke="#e1e4e8"/>
  <circle cx="870" cy="485" r="80" fill="none" stroke="#1a5fb4" stroke-width="36" stroke-dasharray="330 170"/>
  <text x="600" y="640" text-anchor="middle" font-family="system-ui, sans-serif" font-size="16" fill="#8b949e">PLACEHOLDER — replace with a real screenshot of /dashboard/</text>
</svg>
