<svg xmlns="http://www.w3.org/2000/svg" width="1200" height="675" viewBox="0 0 1200 675" role="img" aria-label="Swagger API docs screenshot placeholder">
  <rect width="1200" height="675" fill="#f4f5f7"/>
  <rect x="40" y="40" width="1120" height="595" rx="16" fill="#ffffff" stroke="#e1e4e8"/>
  <rect x="40" y="40" width="1120" height="64" rx="16" fill="#173647"/>
  <rect x="40" y="88" width="1120" height="16" fill="#173647"/>
  <text x="80" y="80" font-family="system-ui, sans-serif" font-size="22" font-weight="700" fill="#ffffff">API v1 — Swagger UI</text>
  <g font-family="system-ui, sans-serif" font-size="18" font-weight="700" fill="#ffffff">
    <rect x="80" y="150" width="1040" height="56" rx="8" fill="#49cc90"/>
    <text x="104" y="185">POST</text>
    <text x="200" y="185" fill="#1b1b1b" font-weight="400">/api/v1/auth/login/</text>
    <rect x="80" y="222" width="1040" height="56" rx="8" fill="#61affe"/>
    <text x="104" y="257">GET</text>
    <text x="200" y="257" fill="#1b1b1b" font-weight="400">/api/v1/products/</text>
    <rect x="80" y="294" width="1040" height="56" rx="8" fill="#61affe"/>
    <text x="104" y="329">GET</text>
    <text x="200" y="329" fill="#1b1b1b" font-weight="400">/api/v1/orders/</text>
    <rect x="80" y="366" width="1040" height="56" rx="8" fill="#61affe"/>
    <text x="104" y="401">GET</text>
    <text x="200" y="401" fill="#1b1b1b" font-weight="400">/api/v1/analytics/revenue/</text>
    <rect x="80" y="438" width="1040" height="56" rx="8" fill="#61affe"/>
    <text x="104" y="473">GET</text>
    <text x="200" y="473" fill="#1b1b1b" font-weight="400">/api/v1/analytics/forecast/</text>
  </g>
  <text x="600" y="600" text-anchor="middle" font-family="system-ui, sans-serif" font-size="16" fill="#8b949e">PLACEHOLDER — replace with a real screenshot of /api/v1/schema/swagger-ui/</text>
</svg>
